<svg xmlns="http://www.w3.org/2000/svg" viewBox="0 0 37.86 15.4"><defs><style>.cls-1{fill:#fdda29;}</style></defs><title>logo-kozyhome-noi-that-chat-luong-uy-tin</title><g id="Layer_2" data-name="Layer 2"><g id="Layer_2-2" data-name="Layer 2"><path d="M16.55,9.33v2.34h2.38V9.33h1.19v5.94H18.93V12.8H16.55v2.47H15.37V9.33Z"/><path d="M21.29,14.3a2.5,2.5,0,0,1,0-2.3,2.06,2.06,0,0,1,.81-.82,2.36,2.36,0,0,1,1.17-.29,2.42,2.42,0,0,1,1.17.29,2.1,2.1,0,0,1,.8.82,2.43,2.43,0,0,1,0,2.3,2.14,2.14,0,0,1-.8.81,2.42,2.42,0,0,1-1.17.29,2.36,2.36,0,0,1-1.17-.29A2.1,2.1,0,0,1,21.29,14.3Zm2.93-.52a1.29,1.29,0,0,0,.15-.64,1.26,1.26,0,0,0-.15-.62,1.05,1.05,0,0,0-.4-.41,1.15,1.15,0,0,0-1.1,0,1.15,1.15,0,0,0-.41.41,1.38,1.38,0,0,0,0,1.25,1.1,1.1,0,0,0,.41.42,1.15,1.15,0,0,0,1.1,0A1.05,1.05,0,0,0,24.22,13.78Z"/><path d="M27.36,11v.52a1.51,1.51,0,0,1,.53-.47,1.61,1.61,0,0,1,.76-.18,1.48,1.48,0,0,1,.79.21,1.23,1.23,0,0,1,.45.47,1.45,1.45,0,0,1,.53-.47,1.71,1.71,0,0,1,.86-.21,1.36,1.36,0,0,1,1.11.45,1.78,1.78,0,0,1,.39,1.21v2.72H31.63V12.74a.81.81,0,0,0-.17-.57A.57.57,0,0,0,31,12a.74.74,0,0,0-.64.32,1.35,1.35,0,0,0-.24.84v2.14H29V12.74a.81.81,0,0,0-.18-.57.63.63,0,0,0-.51-.2.71.71,0,0,0-.61.32,1.42,1.42,0,0,0-.23.84v2.14H26.27V11Z"/><path d="M33.86,14.31a2.37,2.37,0,0,1-.28-1.16A2.34,2.34,0,0,1,33.86,12a2.24,2.24,0,0,1,.79-.83,2.1,2.1,0,0,1,1.11-.3,2.13,2.13,0,0,1,1.13.28,1.89,1.89,0,0,1,.73.78A2.45,2.45,0,0,1,37.86,13a2.91,2.91,0,0,1,0,.4H34.71a1.08,1.08,0,0,0,.38.68,1.1,1.1,0,0,0,.73.25,1.17,1.17,0,0,0,.61-.15,1.43,1.43,0,0,0,.43-.45l.94.46a2.17,2.17,0,0,1-2,1.17,2.2,2.2,0,0,1-1.14-.29A2.05,2.05,0,0,1,33.86,14.31Zm2.75-2a1,1,0,0,0-.33-.3,1,1,0,0,0-.51-.13,1,1,0,0,0-.63.22,1.12,1.12,0,0,0-.37.54h2A.81.81,0,0,0,36.61,12.27Z"/><path d="M16.55,2.58V5.09h0L18.7,2.58h1.39V2.7L18,5.11l2.13,3.28v.13H18.9L17.17,6.05l-.62.72V8.52H15.37V2.58Z"/><path d="M21.29,7.54A2.33,2.33,0,0,1,21,6.39a2.36,2.36,0,0,1,.28-1.15,2,2,0,0,1,.81-.81,2.43,2.43,0,0,1,2.34,0,2,2,0,0,1,.81.81,2.36,2.36,0,0,1,.28,1.15,2.33,2.33,0,0,1-.28,1.15,2,2,0,0,1-.81.81,2.43,2.43,0,0,1-2.34,0A2,2,0,0,1,21.29,7.54ZM24.23,7a1.25,1.25,0,0,0,.15-.63,1.28,1.28,0,0,0-.15-.63,1.21,1.21,0,0,0-.4-.41,1.17,1.17,0,0,0-1.11,0,1.21,1.21,0,0,0-.4.41,1.18,1.18,0,0,0-.16.63,1.18,1.18,0,0,0,.16.63,1.09,1.09,0,0,0,.95.56,1.07,1.07,0,0,0,.56-.15A1.05,1.05,0,0,0,24.23,7Z"/><path d="M28.41,5.25H26.35v-1h3.51V5.2L27.73,7.53h2.19v1H26.28V7.58Z"/><path d="M30.81,4.26h1.31l1.08,2.6h0l1-2.6h1.28l-2.62,6H31.68l.91-2Z"/><polyline class="cls-1" points="6.01 0 6.01 3.42 2.49 6.33 2.47 12.73 10.59 12.73 10.59 9.36 6.01 3.42 6.01 0 13.06 8.52 13.06 15.21 0 15.24 0 5.11"/></g></g></svg>